<?xml version="1.0" standalone="no"?>
<!DOCTYPE svg PUBLIC "-//W3C//DTD SVG 1.1//EN" "http://www.w3.org/Graphics/SVG/1.1/DTD/svg11.dtd" >
<svg xmlns="http://www.w3.org/2000/svg" xmlns:xlink="http://www.w3.org/1999/xlink" version="1.1">
<metadata>
Created by FontForge 20150318 at Sat Aug 15 13:07:10 2015
 By uniteet7
Copyright (c) 1990 Neufville SL, Copyright (c) 1990-2000 ParaType, Inc. All Rights Reserved. Futura is a registered trade mark of Neufville SL.
</metadata>
<defs>
<font id="FuturaDemiC-Italic" horiz-adv-x="568" >
  <font-face 
    font-family="FuturaDemiC"
    font-weight="400"
    font-style="italic"
    font-stretch="normal"
    units-per-em="1000"
    panose-1="2 0 5 3 4 0 0 9 0 3"
    ascent="800"
    descent="-200"
    x-height="433"
    cap-height="667"
    bbox="-21 -250 1159.37 920"
    underline-thickness="50"
    underline-position="-50"
    slope="-7"
    stemh="104"
    stemv="121"
    unicode-range="U+0020-E000"
  />
<missing-glyph horiz-adv-x="233" 
 />
    <glyph glyph-name=".notdef" horiz-adv-x="233" 
 />
    <glyph glyph-name="space" unicode=" " horiz-adv-x="233" 
 />
    <glyph glyph-name="exclam" unicode="!" horiz-adv-x="252" 
d="M212 203h-124l58 464h124zM55 65c6 44 44 78 88 78s74 -34 68 -78c-5 -44 -43 -78 -87 -78s-74 34 -69 78z" />
    <glyph glyph-name="quotedbl" unicode="&#x22;" horiz-adv-x="400" 
d="M260 667l-56 -268h-90l10 268h136zM440 667l-56 -268h-90l10 268h136z" />
    <glyph glyph-name="numbersign" unicode="#" horiz-adv-x="600" 
d="M420 0h-122l52 186h-94l-52 -186h-122l52 186h-102l30 104h102l29 101h-102l29 104h102l50 172h122l-50 -172h94l50 172h122l-50 -172h102l-29 -104h-102l-29 -101h102l-30 -104h-102zM380 290l29 101h-94l-29 -101h94z" />
    <glyph glyph-name="dollar" unicode="$" 
d="M357 761h62l-12 -96c58 -4 108 -31 145 -75l-76 -84c-11 17 -43 54 -99 54c-58 0 -91 -36 -95 -71c-7 -50 48 -67 97 -88c30 -14 82 -35 112 -68c25 -26 43 -66 36 -124c-12 -103 -90 -187 -201 -207l-13 -101h-62l13 99c-73 4 -120 31 -150 57c-27 22 -41 42 -52 62
l85 77c21 -39 64 -88 137 -88c59 0 105 31 112 88c4 34 -7 59 -81 93c-52 24 -96 41 -130 82c-12 15 -37 51 -28 117c2 22 19 110 118 157c20 10 42 17 70 20z" />
    <glyph glyph-name="percent" unicode="%" horiz-adv-x="774" 
d="M281 675c104 0 159 -67 148 -158s-83 -158 -187 -158s-160 67 -149 158s84 158 188 158zM251 431c49 0 88 36 94 86s-24 86 -73 86s-89 -36 -95 -86s25 -86 74 -86zM162 3l481 686l50 -30l-482 -687zM613 306c104 0 160 -67 149 -158s-84 -158 -188 -158
s-159 67 -148 158s83 158 187 158zM583 62c49 0 89 36 95 86s-25 86 -74 86s-88 -36 -94 -86s24 -86 73 -86z" />
    <glyph glyph-name="ampersand" unicode="&#x26;" horiz-adv-x="710" 
d="M617 324l67 -75c-46 -50 -60 -62 -82 -81l-17 -15l117 -153h-161l-56 75c-35 -28 -120 -90 -226 -90c-137 0 -198 95 -186 191c12 99 96 151 128 169l56 31c-20 23 -58 75 -50 140c10 83 80 166 204 166c116 0 170 -77 160 -159c-6 -48 -36 -105 -112 -148l-30 -17
l94 -126c50 44 78 73 94 92zM422 157l-108 145c-55 -27 -103 -64 -109 -115c-7 -50 31 -88 87 -88c54 0 105 36 130 58zM350 463l25 -36l33 21c39 25 52 52 55 74c4 33 -12 66 -57 66c-47 0 -72 -32 -76 -62c-3 -25 9 -46 20 -63z" />
    <glyph glyph-name="quotesingle" unicode="'" horiz-adv-x="220" 
d="M260 667l-56 -268h-90l10 268h136z" />
    <glyph glyph-name="parenleft" unicode="(" horiz-adv-x="320" 
d="M249 -117l-103 -53c-16 36 -33 86 -44 168c-9 69 -14 167 2 300c17 133 46 231 72 300c31 82 60 132 85 168l90 -53c-32 -54 -52 -101 -67 -143c-25 -70 -53 -187 -64 -272c-10 -85 -11 -202 -3 -272c5 -42 13 -89 32 -143z" />
    <glyph glyph-name="parenright" unicode=")" horiz-adv-x="320" 
d="M143 713l104 53c15 -36 32 -86 43 -168c10 -69 15 -167 -2 -300c-16 -133 -45 -231 -72 -300c-31 -82 -60 -132 -84 -168l-91 53c33 54 53 101 68 143c24 70 53 187 63 272c11 85 11 202 4 272c-5 42 -13 89 -33 143z" />
    <glyph glyph-name="asterisk" unicode="*" 
d="M227 681l107 -58l-4 126h92l-36 -126l121 59l18 -88l-130 -20l80 -90l-82 -54l-42 115l-72 -116l-68 54l102 91l-125 19z" />
    <glyph glyph-name="plus" unicode="+" horiz-adv-x="500" 
d="M67 283l14 112h156l19 156h122l-19 -156h156l-14 -112h-156l-19 -156h-122l19 156h-156z" />
    <glyph glyph-name="comma" unicode="," horiz-adv-x="328" 
d="M-13 -131l139 269l111 -13l-174 -265z" />
    <glyph glyph-name="hyphenminus" unicode="&#xe000;" horiz-adv-x="340" 
d="M61 174l14 112h260l-14 -112h-260z" />
    <glyph glyph-name="period" unicode="." horiz-adv-x="252" 
d="M55 65c6 44 44 78 88 78s74 -34 68 -78c-5 -44 -43 -78 -87 -78s-74 34 -69 78z" />
    <glyph glyph-name="slash" unicode="/" horiz-adv-x="550" 
d="M-18 -143l491 884l83 -40l-491 -884z" />
    <glyph glyph-name="zero" unicode="0" 
d="M282 -15c-133 0 -244 119 -215 349c28 229 167 348 300 348s244 -119 215 -349c-28 -229 -167 -348 -300 -348zM354 570c-56 0 -136 -63 -157 -236c-22 -174 41 -237 98 -237s136 63 158 237c21 173 -43 236 -99 236z" />
    <glyph glyph-name="one" unicode="1" 
d="M228 0l68 555h-96l14 112h226l-82 -667h-130z" />
    <glyph glyph-name="two" unicode="2" 
d="M18 0l223 223c14 14 103 103 131 139c21 27 47 68 52 107c8 60 -30 101 -86 101c-68 0 -111 -54 -120 -111h-134c23 136 129 223 261 223c155 0 222 -106 209 -212c-12 -103 -90 -177 -149 -233l-131 -125h241l-13 -112h-484z" />
    <glyph glyph-name="three" unicode="3" 
d="M233 493h-122c27 121 126 189 240 189c128 0 201 -72 187 -184c-5 -35 -20 -101 -94 -140c25 -11 96 -49 82 -159c-17 -137 -132 -214 -264 -214c-128 0 -220 79 -215 207h130c1 -55 35 -95 99 -95c75 0 114 55 120 106c6 49 -17 104 -98 104h-17l12 94h18
c64 0 96 45 102 91c7 53 -24 88 -77 88c-46 0 -93 -30 -103 -87z" />
    <glyph glyph-name="four" unicode="4" 
d="M553 679l-56 -457h78l-13 -104h-78l-14 -118h-122l14 118h-326l7 58l393 503h117zM203 222h172l32 265z" />
    <glyph glyph-name="five" unicode="5" 
d="M554 667l-14 -112h-222l-37 -105c13 2 27 4 44 4c131 0 222 -82 205 -226c-16 -126 -107 -243 -291 -243c-53 0 -136 9 -205 85l57 112c25 -37 75 -85 158 -85c80 0 141 53 150 129c9 70 -32 134 -134 134c-34 0 -81 -7 -134 -43h-8l123 350h308z" />
    <glyph glyph-name="six" unicode="6" 
d="M402 695l83 -70l-182 -202c22 9 46 16 76 16c108 0 201 -78 184 -217c-15 -118 -104 -237 -282 -237c-169 0 -240 109 -225 230c10 85 60 151 110 208zM293 89c70 0 130 52 139 123c8 71 -38 123 -108 123s-130 -52 -138 -123c-9 -71 37 -123 107 -123z" />
    <glyph glyph-name="seven" unicode="7" 
d="M59 40l365 515h-310l14 112h514l-492 -695z" />
    <glyph glyph-name="eight" unicode="8" 
d="M439 348c71 -24 108 -89 99 -166c-14 -110 -112 -197 -256 -197s-222 87 -208 197c9 77 62 142 139 166c-48 25 -87 74 -77 148c11 97 92 186 231 186s198 -89 187 -186c-10 -74 -61 -123 -115 -148zM333 402c55 0 98 38 104 93c7 55 -26 93 -81 93s-98 -38 -105 -93
c-6 -55 27 -93 82 -93zM294 87c58 0 107 43 115 104c7 61 -31 104 -89 104s-108 -43 -115 -104c-8 -61 31 -104 89 -104z" />
    <glyph glyph-name="nine" unicode="9" 
d="M247 -28l-83 70l183 202c-23 -9 -47 -16 -77 -16c-108 0 -201 78 -184 217c15 118 104 237 282 237c169 0 240 -109 225 -230c-10 -85 -59 -151 -109 -208zM356 578c-70 0 -130 -52 -139 -123c-8 -71 38 -123 108 -123s130 52 138 123c9 71 -37 123 -107 123z" />
    <glyph glyph-name="colon" unicode=":" horiz-adv-x="252" 
d="M93 370c5 44 44 78 88 78s73 -34 68 -78s-44 -78 -88 -78s-73 34 -68 78zM55 65c6 44 44 78 88 78s74 -34 68 -78c-5 -44 -43 -78 -87 -78s-74 34 -69 78z" />
    <glyph glyph-name="semicolon" unicode=";" horiz-adv-x="328" 
d="M129 370c5 44 44 78 88 78s73 -34 68 -78s-44 -78 -88 -78s-73 34 -68 78zM-13 -131l139 269l111 -13l-174 -265z" />
    <glyph glyph-name="less" unicode="&#x3c;" horiz-adv-x="500" 
d="M202 334l287 -150l-15 -120l-407 218l13 104l461 218l-15 -120z" />
    <glyph glyph-name="equal" unicode="=" horiz-adv-x="500" 
d="M78 372l13 106h434l-13 -106h-434zM57 200l13 106h434l-13 -106h-434z" />
    <glyph glyph-name="greater" unicode="&#x3e;" horiz-adv-x="500" 
d="M380 334l-288 150l15 120l407 -218l-13 -104l-461 -218l15 120z" />
    <glyph glyph-name="question" unicode="?" horiz-adv-x="490" 
d="M307 203h-124l25 196c12 -3 23 -4 35 -4c94 0 130 57 135 100c6 45 -19 79 -65 79c-70 0 -79 -68 -80 -77l-1 -6h-130l1 6c14 120 115 185 225 185c119 0 195 -72 180 -187c-11 -93 -81 -171 -188 -187zM150 65c6 44 44 78 88 78s74 -34 68 -78c-5 -44 -43 -78 -87 -78
s-74 34 -69 78z" />
    <glyph glyph-name="at" unicode="@" horiz-adv-x="734" 
d="M523 450l13 42h84l-65 -203c-3 -10 -7 -23 -8 -34c-4 -29 11 -34 22 -34c18 0 38 19 50 33c25 30 48 78 54 125c13 107 -45 224 -211 224c-183 0 -292 -149 -307 -276c-14 -109 36 -211 130 -247c40 -15 85 -17 109 -17c55 0 119 8 191 33l10 -76
c-77 -25 -145 -32 -204 -32c-78 0 -173 14 -244 88c-66 68 -85 165 -74 252c26 209 199 350 398 350c207 0 295 -143 277 -292c-17 -139 -112 -233 -194 -233c-35 0 -65 19 -70 56c-35 -42 -82 -64 -131 -64c-76 0 -134 54 -121 157c16 132 118 200 198 200
c35 0 75 -12 93 -52zM386 230c43 0 93 43 101 111c5 38 -10 74 -55 74c-51 0 -97 -48 -105 -109c-6 -52 26 -76 59 -76z" />
    <glyph glyph-name="A" unicode="A" horiz-adv-x="672" 
d="M530 0l-42 140h-269l-76 -140h-141l372 681h98l198 -681h-140zM273 246h190l-65 240z" />
    <glyph glyph-name="B" unicode="B" horiz-adv-x="570" 
d="M158 667h165c37 0 109 0 157 -42c36 -30 52 -82 45 -138c-10 -86 -71 -121 -91 -131c43 -7 67 -26 82 -42c35 -38 37 -90 33 -125c-5 -39 -23 -94 -74 -135c-55 -44 -117 -54 -175 -54h-224zM275 561l-22 -171h37c20 0 102 2 112 87c8 61 -36 84 -89 84h-38zM241 290
l-22 -184h56c24 0 60 1 91 18c34 19 47 51 50 77c3 21 0 57 -39 76c-27 13 -60 13 -88 13h-48z" />
    <glyph glyph-name="C" unicode="C" horiz-adv-x="604" 
d="M581 176l-19 -152c-42 -21 -97 -39 -169 -39c-117 0 -183 40 -233 93c-68 74 -88 157 -76 255c15 121 76 208 140 261c74 63 160 88 255 88c47 0 102 -8 159 -41l-18 -152c-53 70 -128 75 -152 75c-134 0 -235 -110 -250 -233c-18 -148 86 -228 198 -228
c62 0 120 27 165 73z" />
    <glyph glyph-name="D" unicode="D" horiz-adv-x="670" 
d="M158 667h174c93 0 172 -10 240 -65c73 -61 108 -158 94 -269c-13 -111 -71 -207 -167 -269c-84 -55 -158 -64 -251 -64h-172zM274 555l-55 -443h40c33 0 106 2 169 44c57 38 96 106 104 177c9 70 -12 138 -60 178c-49 40 -114 44 -158 44h-40z" />
    <glyph glyph-name="E" unicode="E" horiz-adv-x="496" 
d="M528 667l-14 -112h-240l-19 -149h230l-13 -112h-230l-23 -182h240l-13 -112h-370l82 667h370z" />
    <glyph glyph-name="F" unicode="F" horiz-adv-x="466" 
d="M512 667l-14 -112h-224l-19 -149h210l-13 -112h-210l-36 -294h-130l82 667h354z" />
    <glyph glyph-name="G" unicode="G" horiz-adv-x="764" 
d="M444 245l13 112h306l-2 -17c-9 -76 -31 -154 -88 -225c-93 -114 -210 -130 -281 -130c-206 0 -333 140 -308 348c26 207 191 349 397 349c190 0 251 -120 267 -157l-120 -61c-11 25 -52 100 -162 100c-132 0 -232 -105 -248 -233c-12 -103 33 -228 190 -228
c92 0 181 40 208 142h-172z" />
    <glyph glyph-name="H" unicode="H" horiz-adv-x="694" 
d="M288 667l-32 -258h282l32 258h130l-82 -667h-130l36 297h-282l-36 -297h-130l82 667h130z" />
    <glyph glyph-name="I" unicode="I" horiz-adv-x="282" 
d="M158 667h130l-82 -667h-130z" />
    <glyph glyph-name="J" unicode="J" horiz-adv-x="390" 
d="M266 667h130l-56 -450c-7 -59 -23 -152 -103 -202c-31 -19 -72 -30 -112 -30c-48 0 -103 16 -146 62l91 95c11 -19 30 -36 61 -36c28 0 45 12 53 23c19 23 24 67 29 108z" />
    <glyph glyph-name="K" unicode="K" horiz-adv-x="636" 
d="M288 667l-35 -282l280 282h164l-320 -308l253 -359h-172l-201 299l-17 -15l-34 -284h-130l82 667h130z" />
    <glyph glyph-name="L" unicode="L" horiz-adv-x="426" 
d="M158 667h130l-69 -555h206l-13 -112h-336z" />
    <glyph glyph-name="M" unicode="M" horiz-adv-x="870" 
d="M42 0l207 679h90l127 -436l243 436h90l29 -679h-132l-10 411l-235 -420h-36l-123 420l-118 -411h-132z" />
    <glyph glyph-name="N" unicode="N" horiz-adv-x="778" 
d="M206 0h-130l83 682h90l349 -464l56 449h130l-84 -680h-90l-349 464z" />
    <glyph glyph-name="O" unicode="O" horiz-adv-x="800" 
d="M483 682c210 0 338 -146 313 -349s-188 -348 -398 -348s-339 145 -314 348s189 349 399 349zM412 103c130 0 234 95 250 230c17 135 -63 231 -193 231s-234 -96 -251 -231c-16 -135 64 -230 194 -230z" />
    <glyph glyph-name="P" unicode="P" horiz-adv-x="534" 
d="M158 667h194c75 0 126 -8 169 -51c48 -48 54 -113 48 -161c-3 -26 -16 -98 -73 -149c-41 -37 -99 -59 -176 -59h-84l-30 -247h-130zM274 555l-24 -196h53c25 0 57 0 87 21c27 19 42 49 46 78c4 37 -11 62 -28 76c-24 19 -58 21 -89 21h-45z" />
    <glyph glyph-name="Q" unicode="Q" horiz-adv-x="800" 
d="M641 -26l-47 59c-64 -35 -122 -48 -196 -48c-210 0 -339 144 -314 348c25 203 189 349 399 349s338 -146 313 -349c-15 -125 -76 -197 -117 -237l95 -109zM533 268l68 -79c24 28 52 70 61 144c17 135 -63 231 -193 231s-234 -96 -251 -231c-16 -134 63 -230 197 -230
c45 0 76 10 102 22l-120 132z" />
    <glyph glyph-name="R" unicode="R" horiz-adv-x="574" 
d="M158 667h193c92 0 136 -24 163 -50c46 -43 54 -100 48 -150c-8 -65 -41 -122 -97 -157c-19 -12 -44 -23 -77 -29l174 -281h-162l-146 268h-16l-32 -268h-130zM275 561l-25 -201h37c25 0 128 3 140 101c12 99 -89 100 -113 100h-39z" />
    <glyph glyph-name="S" unicode="S" horiz-adv-x="534" 
d="M546 604l-79 -89c-33 52 -78 57 -102 57c-70 0 -98 -44 -102 -78c-2 -16 1 -31 16 -45c14 -15 35 -23 75 -38c50 -18 97 -36 127 -67c26 -27 48 -72 40 -140c-16 -130 -121 -219 -259 -219c-123 0 -186 75 -215 126l95 81c24 -65 82 -89 129 -89c59 0 108 36 114 92
c3 24 -2 43 -18 60c-22 23 -61 36 -97 49c-34 12 -74 28 -104 58c-20 19 -46 56 -38 124c12 98 90 196 238 196c42 0 120 -8 180 -78z" />
    <glyph glyph-name="T" unicode="T" horiz-adv-x="442" 
d="M504 555h-150l-68 -555h-130l68 555h-150l14 112h430z" />
    <glyph glyph-name="U" unicode="U" horiz-adv-x="688" 
d="M158 667h130l-52 -419c-6 -51 7 -82 20 -99c16 -23 48 -46 100 -46s90 23 112 46c17 17 38 48 44 99l52 419h130l-51 -408c-7 -63 -25 -127 -72 -178c-55 -63 -143 -96 -229 -96s-166 33 -207 96c-33 51 -35 115 -28 178z" />
    <glyph glyph-name="V" unicode="V" horiz-adv-x="644" 
d="M84 667h142l122 -448l234 448h142l-370 -682h-70z" />
    <glyph glyph-name="W" unicode="W" horiz-adv-x="978" 
d="M537 423l-209 -438h-92l-152 682h138l93 -454l219 460h72l98 -460l216 454h138l-335 -682h-92z" />
    <glyph glyph-name="X" unicode="X" horiz-adv-x="640" 
d="M8 0l279 352l-160 315h156l91 -207l149 207h156l-244 -315l185 -352h-156l-116 244l-184 -244h-156z" />
    <glyph glyph-name="Y" unicode="Y" horiz-adv-x="590" 
d="M227 0l37 305l-184 362h154l114 -232l172 232h154l-280 -362l-37 -305h-130z" />
    <glyph glyph-name="Z" unicode="Z" horiz-adv-x="584" 
d="M644 667l-393 -555h308l-13 -112h-524l392 555h-273l14 112h489z" />
    <glyph glyph-name="bracketleft" unicode="[" horiz-adv-x="350" 
d="M379 645h-94l-86 -701h94l-13 -104h-210l112 909h210z" />
    <glyph glyph-name="backslash" unicode="\" horiz-adv-x="550" 
d="M532 -143l-93 -40l-273 884l93 40z" />
    <glyph glyph-name="bracketright" unicode="]" horiz-adv-x="350" 
d="M43 -56h94l86 701h-94l13 104h210l-112 -909h-210z" />
    <glyph glyph-name="asciicircum" unicode="^" horiz-adv-x="500" 
d="M321 580l-145 -241h-127l203 331h160l121 -331h-127z" />
    <glyph glyph-name="underscore" unicode="_" horiz-adv-x="500" 
d="M-20 -158l13 104h500l-13 -104h-500z" />
    <glyph glyph-name="grave" unicode="`" horiz-adv-x="500" 
d="M306 510l-133 134l95 56l99 -150z" />
    <glyph glyph-name="a" unicode="a" horiz-adv-x="570" 
d="M436 377l7 56h122l-53 -433h-122l6 56c-51 -63 -110 -70 -141 -70c-133 0 -208 104 -193 231c16 128 115 230 243 230c33 0 98 -6 131 -70zM323 339c-70 0 -126 -53 -135 -122c-8 -69 35 -123 105 -123s127 54 135 123c9 69 -35 122 -105 122z" />
    <glyph glyph-name="b" unicode="b" horiz-adv-x="570" 
d="M272 749l-46 -372c50 60 112 70 149 70c128 0 201 -99 185 -230c-16 -132 -116 -231 -244 -231c-28 0 -91 5 -130 70l-6 -56h-122l92 749h122zM329 339c-70 0 -126 -53 -135 -122c-8 -69 35 -123 105 -123s127 54 135 123c9 69 -35 122 -105 122z" />
    <glyph glyph-name="c" unicode="c" horiz-adv-x="418" 
d="M435 421l-14 -120c-24 24 -54 38 -96 38c-81 0 -129 -59 -137 -122c-9 -71 38 -123 111 -123c27 0 64 8 101 38l-15 -119c-25 -12 -65 -27 -115 -27c-68 0 -125 26 -159 63c-30 31 -59 85 -49 166c9 76 48 137 97 176c58 47 120 56 162 56c45 0 81 -9 114 -26z" />
    <glyph glyph-name="d" unicode="d" horiz-adv-x="570" 
d="M436 377l46 372h122l-92 -749h-122l6 56c-51 -63 -110 -70 -141 -70c-133 0 -208 104 -193 231c16 128 115 230 243 230c33 0 98 -6 131 -70zM323 339c-70 0 -126 -53 -135 -122c-8 -69 35 -123 105 -123s127 54 135 123c9 69 -35 122 -105 122z" />
    <glyph glyph-name="e" unicode="e" horiz-adv-x="522" 
d="M388 139l109 -18c-17 -32 -78 -135 -229 -135c-70 0 -121 20 -159 61c-42 45 -55 101 -47 169c11 86 52 139 87 170c57 50 118 61 170 61c88 0 135 -35 161 -71c39 -55 37 -123 31 -170l-1 -10h-324c-4 -26 0 -54 12 -73c10 -18 35 -41 82 -41c46 0 83 22 108 57z
M199 274h205c-3 59 -47 87 -92 87s-96 -29 -113 -87z" />
    <glyph glyph-name="f" unicode="f" horiz-adv-x="292" 
d="M334 329h-112l-40 -329h-122l40 329h-46l13 104h46l17 139c5 40 16 108 76 153c28 22 66 36 111 36c27 0 48 -5 68 -15l-13 -111c-16 13 -32 18 -53 18c-16 0 -33 -4 -47 -22c-12 -16 -18 -39 -22 -75l-15 -123h112z" />
    <glyph glyph-name="g" unicode="g" 
d="M434 377l7 56h122l-52 -417c-6 -54 -13 -115 -70 -173c-49 -49 -116 -76 -190 -76c-122 0 -210 69 -211 182h132c3 -49 39 -78 93 -78c105 0 119 97 122 122l8 65c-50 -64 -110 -72 -142 -72c-132 0 -206 104 -191 231c15 122 109 230 244 230c81 0 114 -44 128 -70z
M323 339c-70 0 -126 -53 -135 -122c-8 -69 35 -123 105 -123s127 54 135 123c9 69 -35 122 -105 122z" />
    <glyph glyph-name="h" unicode="h" horiz-adv-x="534" 
d="M58 0l92 749h122l-46 -372c27 32 72 70 142 70c38 0 93 -11 122 -53c25 -37 24 -80 19 -122l-33 -272h-122l29 236c2 24 6 62 -13 85c-17 20 -42 22 -54 22c-32 0 -59 -11 -80 -38c-21 -28 -26 -59 -29 -84l-27 -221h-122z" />
    <glyph glyph-name="i" unicode="i" horiz-adv-x="238" 
d="M111 433h122l-53 -433h-122zM121 616c5 40 42 73 82 73s69 -33 64 -73s-42 -73 -82 -73s-69 33 -64 73z" />
    <glyph glyph-name="j" unicode="j" horiz-adv-x="238" 
d="M111 433h122l-82 -665h-122zM121 616c5 40 42 73 82 73s69 -33 64 -73s-42 -73 -82 -73s-69 33 -64 73z" />
    <glyph glyph-name="k" unicode="k" horiz-adv-x="512" 
d="M150 749h122l-59 -474l182 158h158l-227 -190l190 -243h-162l-139 185l-14 -12l-21 -173h-122z" />
    <glyph glyph-name="l" unicode="l" horiz-adv-x="238" 
d="M150 749h122l-92 -749h-122z" />
    <glyph glyph-name="m" unicode="m" horiz-adv-x="790" 
d="M58 0l53 433h122l-6 -49c53 58 110 63 136 63c91 0 119 -57 128 -79c25 34 73 79 148 79c67 0 97 -31 111 -53c23 -37 21 -74 15 -122l-33 -272h-122l29 236c6 51 -2 74 -10 85c-14 20 -35 22 -47 22c-33 0 -56 -15 -72 -38c-19 -26 -24 -61 -27 -84l-27 -221h-122
l29 236c6 51 -2 74 -10 85c-14 20 -35 22 -47 22c-33 0 -56 -15 -72 -38c-19 -26 -24 -61 -27 -84l-27 -221h-122z" />
    <glyph glyph-name="n" unicode="n" horiz-adv-x="534" 
d="M58 0l53 433h122l-7 -56c27 32 72 70 142 70c38 0 93 -11 122 -53c25 -37 24 -80 19 -122l-33 -272h-122l29 236c2 24 6 62 -13 85c-17 20 -42 22 -54 22c-32 0 -59 -11 -80 -38c-21 -28 -26 -59 -29 -84l-27 -221h-122z" />
    <glyph glyph-name="o" unicode="o" 
d="M338 447c82 0 135 -27 168 -61c38 -39 61 -99 52 -170c-9 -70 -46 -130 -94 -169c-41 -34 -100 -61 -182 -61s-135 27 -168 61c-38 39 -61 99 -52 169c9 71 46 131 94 170c41 34 100 61 182 61zM295 94c71 0 129 56 137 122c8 68 -37 123 -107 123s-129 -55 -137 -123
c-8 -66 36 -122 107 -122z" />
    <glyph glyph-name="p" unicode="p" horiz-adv-x="570" 
d="M186 56l-35 -288h-122l82 665h122l-7 -56c50 60 112 70 149 70c128 0 201 -99 185 -230c-16 -132 -116 -231 -244 -231c-28 0 -91 5 -130 70zM329 339c-70 0 -126 -53 -135 -122c-8 -69 35 -123 105 -123s127 54 135 123c9 69 -35 122 -105 122z" />
    <glyph glyph-name="q" unicode="q" horiz-adv-x="570" 
d="M436 377l7 56h122l-82 -665h-122l35 288c-51 -63 -110 -70 -141 -70c-133 0 -208 104 -193 231c16 128 115 230 243 230c33 0 98 -6 131 -70zM323 339c-70 0 -126 -53 -135 -122c-8 -69 35 -123 105 -123s127 54 135 123c9 69 -35 122 -105 122z" />
    <glyph glyph-name="r" unicode="r" horiz-adv-x="360" 
d="M58 0l53 433h122l-8 -65c23 37 52 55 61 60c21 12 45 19 74 19c21 0 38 -5 51 -10l-30 -114c-14 11 -30 16 -55 16c-23 0 -57 -5 -85 -35c-27 -29 -32 -66 -36 -96l-25 -208h-122z" />
    <glyph glyph-name="s" unicode="s" horiz-adv-x="404" 
d="M403 401l-69 -71c-26 27 -54 29 -67 29c-29 0 -49 -14 -52 -35c-1 -11 2 -28 35 -39l27 -9c33 -11 82 -28 103 -62c11 -18 16 -44 13 -72c-5 -39 -23 -78 -62 -110c-38 -32 -82 -46 -135 -46c-90 0 -136 43 -159 72l73 74c20 -28 54 -50 90 -50c34 0 62 17 65 47
c4 27 -17 38 -32 44l-27 10c-30 11 -64 25 -87 52c-17 21 -27 48 -22 83c5 42 29 77 57 98c37 27 81 31 116 31c32 0 83 -4 133 -46z" />
    <glyph glyph-name="t" unicode="t" horiz-adv-x="270" 
d="M304 329h-84l-40 -329h-122l40 329h-48l13 104h48l18 148h122l-18 -148h84z" />
    <glyph glyph-name="u" unicode="u" horiz-adv-x="536" 
d="M111 433h122l-30 -245c-3 -23 -5 -54 16 -76c14 -13 37 -22 60 -22s48 9 64 22c27 22 33 53 36 76l30 245h122l-33 -265c-5 -39 -16 -91 -69 -133c-44 -35 -110 -49 -163 -49s-115 14 -151 49c-43 42 -42 94 -37 133z" />
    <glyph glyph-name="v" unicode="v" horiz-adv-x="504" 
d="M55 433h136l84 -244l144 244h136l-277 -442h-56z" />
    <glyph glyph-name="w" unicode="w" horiz-adv-x="792" 
d="M427 255l-149 -264h-56l-167 442h136l83 -250l150 262h52l86 -262l145 250h136l-277 -442h-56z" />
    <glyph glyph-name="x" unicode="x" horiz-adv-x="566" 
d="M2 0l235 236l-142 197h154l74 -112l104 112h154l-193 -197l176 -236h-156l-106 151l-144 -151h-156z" />
    <glyph glyph-name="y" unicode="y" horiz-adv-x="538" 
d="M20 -232l195 297l-160 368h142l104 -246l150 246h138l-431 -665h-138z" />
    <glyph glyph-name="z" unicode="z" horiz-adv-x="484" 
d="M525 433l-287 -329h229l-12 -104h-443l286 329h-208l13 104h422z" />
    <glyph glyph-name="braceleft" unicode="{" horiz-adv-x="500" 
d="M264 240c44 -31 53 -58 45 -125l-18 -143c-2 -14 -4 -33 7 -46c15 -17 51 -15 73 -15h18l-13 -104c-16 -1 -42 -2 -64 -2c-42 0 -87 3 -115 29c-34 31 -30 74 -25 114l20 162c3 22 0 47 -10 60c-7 10 -22 16 -35 18l12 104c15 2 30 8 41 18c12 13 21 38 24 60l20 162
c5 40 11 83 53 114c34 26 80 29 122 29c22 0 47 -1 63 -2l-13 -104h-18c-22 0 -56 2 -75 -15c-15 -13 -17 -32 -19 -46l-18 -143c-8 -67 -23 -94 -75 -125z" />
    <glyph glyph-name="bar" unicode="|" horiz-adv-x="500" 
d="M158 -250l123 1000h122l-123 -1000h-122z" />
    <glyph glyph-name="braceright" unicode="}" horiz-adv-x="500" 
d="M294 240c-44 31 -53 58 -45 125l18 143c2 14 4 33 -7 46c-15 17 -51 15 -73 15h-18l13 104c16 1 43 2 65 2c42 0 86 -3 114 -29c34 -31 30 -74 25 -114l-20 -162c-3 -22 0 -47 10 -60c7 -10 22 -16 35 -18l-12 -104c-15 -2 -30 -8 -41 -18c-12 -13 -21 -38 -24 -60
l-20 -162c-5 -40 -11 -83 -53 -114c-34 -26 -79 -29 -121 -29c-22 0 -48 1 -64 2l13 104h18c22 0 56 -2 75 15c15 13 17 32 19 46l18 143c8 67 23 94 75 125z" />
    <glyph glyph-name="asciitilde" unicode="~" horiz-adv-x="668" 
d="M599 745l65 -40c-26 -48 -60 -94 -106 -116c-28 -13 -48 -15 -61 -15c-39 0 -60 10 -103 27c-45 18 -65 25 -87 25c-44 0 -72 -49 -78 -63l-65 40c16 34 51 93 91 119c25 17 52 21 74 21c29 0 53 -7 105 -27c32 -12 59 -25 84 -25c34 0 58 17 81 54z" />
    <glyph glyph-name="afii10051" unicode="&#x402;" horiz-adv-x="680" 
d="M564 555h-220l-19 -154c40 4 87 7 129 7c52 0 153 -3 204 -80c20 -30 32 -76 25 -138c-15 -124 -108 -201 -223 -201c-53 0 -93 13 -124 30l47 103c29 -19 59 -21 72 -21c50 0 87 33 94 87c3 30 -1 57 -15 75c-23 30 -66 33 -99 33c-42 0 -85 -3 -124 -7l-35 -289h-130
l68 555h-140l14 112h490z" />
    <glyph glyph-name="quotesinglbase" unicode="&#x201a;" horiz-adv-x="370" 
d="M25 -131l139 269l111 -13l-174 -265z" />
    <glyph glyph-name="quotedblbase" unicode="&#x201e;" horiz-adv-x="570" 
d="M25 -131l139 269l111 -13l-174 -265zM213 -131l139 269l111 -13l-174 -265z" />
    <glyph glyph-name="ellipsis" unicode="&#x2026;" horiz-adv-x="846" 
d="M70 65c6 44 44 78 88 78s74 -34 68 -78c-5 -44 -43 -78 -87 -78s-74 34 -69 78zM352 65c6 44 44 78 88 78s74 -34 68 -78c-5 -44 -43 -78 -87 -78s-74 34 -69 78zM634 65c6 44 44 78 88 78s74 -34 68 -78c-5 -44 -43 -78 -87 -78s-74 34 -69 78z" />
    <glyph glyph-name="dagger" unicode="&#x2020;" 
d="M298 590l20 159h116l-20 -159h158l-13 -104h-158l-79 -646h-116l79 646h-158l13 104h158z" />
    <glyph glyph-name="daggerdbl" unicode="&#x2021;" 
d="M298 590l20 159h116l-20 -159h158l-13 -104h-158l-26 -214h158l-13 -104h-158l-40 -328h-116l40 328h-158l13 104h158l26 214h-158l13 104h158z" />
    <glyph glyph-name="perthousand" unicode="&#x2030;" horiz-adv-x="1170" 
d="M281 675c104 0 159 -67 148 -158s-83 -158 -187 -158s-160 67 -149 158s84 158 188 158zM251 431c49 0 88 36 94 86s-24 86 -73 86s-89 -36 -95 -86s25 -86 74 -86zM162 3l481 686l50 -30l-482 -687zM613 306c104 0 160 -67 149 -158s-84 -158 -188 -158
s-159 67 -148 158s83 158 187 158zM583 62c49 0 89 36 95 86s-25 86 -74 86s-88 -36 -94 -86s24 -86 73 -86zM1009 306c104 0 160 -67 149 -158s-84 -158 -188 -158s-159 67 -148 158s83 158 187 158zM979 62c49 0 89 36 95 86s-25 86 -74 86s-88 -36 -94 -86s24 -86 73 -86
z" />
    <glyph glyph-name="afii10058" unicode="&#x409;" horiz-adv-x="944" 
d="M222 667h454l-33 -261h104c49 0 112 -7 158 -55c32 -34 51 -85 43 -149c-5 -45 -24 -88 -50 -120c-59 -73 -143 -82 -199 -82h-235l68 555h-194l-37 -296c-8 -69 -17 -160 -99 -221c-29 -22 -73 -44 -138 -44c-19 0 -37 2 -54 6l13 112c10 -3 23 -6 37 -6
c30 0 50 13 62 24c39 34 45 92 53 155zM630 294l-23 -182h76c23 0 120 0 131 90c6 42 -10 92 -106 92h-78z" />
    <glyph glyph-name="guilsinglleft" unicode="&#x2039;" horiz-adv-x="318" 
d="M172 219l102 -164l-76 -50l-132 214l185 214l64 -50z" />
    <glyph glyph-name="afii10059" unicode="&#x40a;" horiz-adv-x="968" 
d="M288 667l-32 -258h282l32 258h130l-33 -261h104c49 0 112 -7 158 -55c32 -34 51 -85 43 -149c-5 -45 -24 -88 -50 -120c-59 -73 -143 -82 -199 -82h-235l36 297h-282l-36 -297h-130l82 667h130zM654 294l-23 -182h76c23 0 120 0 131 90c6 42 -10 92 -106 92h-78z" />
    <glyph glyph-name="afii10060" unicode="&#x40b;" horiz-adv-x="690" 
d="M544 555h-200l-19 -154c29 3 87 7 120 7c109 0 154 -28 172 -43c54 -44 54 -107 48 -160l-25 -205h-130l22 182c4 30 7 67 -22 92c-15 13 -42 22 -92 22c-32 0 -71 -2 -107 -7l-35 -289h-130l68 555h-140l14 112h470z" />
    <glyph glyph-name="afii10145" unicode="&#x40f;" horiz-adv-x="676" 
d="M76 0l82 667h130l-69 -555h264l69 555h130l-82 -667h-202l-23 -180h-120l23 180h-202z" />
    <glyph glyph-name="afii10099" unicode="&#x452;" horiz-adv-x="544" 
d="M68 0l69 569h-78l10 78h78l13 102h122l-13 -102h200l-10 -78h-200l-23 -192c27 32 72 70 142 70c38 0 93 -11 122 -53c25 -37 24 -80 19 -122l-45 -369c-5 -38 -17 -86 -64 -117c-28 -18 -64 -27 -102 -27c-14 0 -46 1 -75 9l13 108c15 -6 31 -9 46 -9c16 0 36 4 49 22
c11 15 14 38 16 60l36 287c2 24 6 62 -13 85c-17 20 -42 22 -54 22c-32 0 -59 -11 -80 -38c-21 -28 -26 -59 -29 -84l-27 -221h-122z" />
    <glyph glyph-name="quoteleft" unicode="&#x2018;" horiz-adv-x="304" 
d="M342 670l-139 -269l-111 13l174 265z" />
    <glyph glyph-name="quoteright" unicode="&#x2019;" horiz-adv-x="370" 
d="M92 411l139 269l111 -13l-174 -265z" />
    <glyph glyph-name="quotedblleft" unicode="&#x201c;" horiz-adv-x="492" 
d="M530 670l-139 -269l-111 13l174 265zM342 670l-139 -269l-111 13l174 265z" />
    <glyph glyph-name="quotedblright" unicode="&#x201d;" horiz-adv-x="570" 
d="M92 411l139 269l111 -13l-174 -265zM280 411l139 269l111 -13l-174 -265z" />
    <glyph glyph-name="bullet" unicode="&#x2022;" horiz-adv-x="668" 
d="M235 340c10 77 81 140 158 140s132 -63 122 -140c-9 -77 -80 -140 -157 -140s-132 63 -123 140z" />
    <glyph glyph-name="endash" unicode="&#x2013;" horiz-adv-x="600" 
d="M71 178l13 104h500l-13 -104h-500z" />
    <glyph glyph-name="emdash" unicode="&#x2014;" horiz-adv-x="800" 
d="M71 178l13 104h700l-13 -104h-700z" />
    <glyph glyph-name="trademark" unicode="&#x2122;" horiz-adv-x="720" 
d="M319 591h-82l-37 -304h-85l37 304h-82l10 76h249zM380 287h-85l115 387h62l65 -231l126 231h62l14 -387h-85l-3 209l-117 -214h-34l-61 214z" />
    <glyph glyph-name="afii10106" unicode="&#x459;" horiz-adv-x="712" 
d="M495 433l-19 -154h95c61 0 93 -22 110 -44c17 -20 27 -50 22 -93c-7 -57 -36 -92 -60 -110c-35 -28 -71 -32 -100 -32h-223l40 329h-118l-20 -159c-4 -35 -16 -89 -56 -128c-11 -10 -52 -46 -123 -46c-12 0 -24 1 -35 4l12 104c6 -1 13 -2 19 -2c27 0 43 11 53 21
c15 16 19 38 21 55l32 255h350zM453 96h57c13 0 32 1 47 11c8 6 18 18 20 35c2 16 -5 26 -12 31c-12 9 -30 10 -41 10h-60z" />
    <glyph glyph-name="guilsinglright" unicode="&#x203a;" horiz-adv-x="318" 
d="M198 219l-101 164l76 50l131 -214l-184 -214l-64 50z" />
    <glyph glyph-name="afii10107" unicode="&#x45a;" horiz-adv-x="742" 
d="M58 0l53 433h122l-19 -153h170l19 153h122l-19 -154h95c61 0 93 -22 110 -44c17 -20 27 -50 22 -93c-7 -57 -36 -92 -60 -110c-35 -28 -71 -32 -100 -32h-223l21 176h-170l-21 -176h-122zM483 96h57c13 0 32 1 47 11c8 6 18 18 20 35c2 16 -5 26 -12 31
c-12 9 -30 10 -41 10h-60z" />
    <glyph glyph-name="afii10108" unicode="&#x45b;" horiz-adv-x="544" 
d="M68 0l69 569h-78l10 78h78l13 102h122l-13 -102h200l-10 -78h-200l-23 -192c27 32 72 70 142 70c38 0 93 -11 122 -53c25 -37 24 -80 19 -122l-33 -272h-122l29 236c2 24 6 62 -13 85c-17 20 -42 22 -54 22c-32 0 -59 -11 -80 -38c-21 -28 -26 -59 -29 -84l-27 -221h-122
z" />
    <glyph glyph-name="afii10193" unicode="&#x45f;" horiz-adv-x="522" 
d="M58 0l53 433h122l-41 -329h162l41 329h122l-53 -433h-148l-20 -160h-110l20 160h-148z" />
    <glyph glyph-name="afii10057" unicode="&#x408;" horiz-adv-x="390" 
d="M266 667h130l-56 -450c-7 -59 -23 -152 -103 -202c-31 -19 -72 -30 -112 -30c-48 0 -103 16 -146 62l91 95c11 -19 30 -36 61 -36c28 0 45 12 53 23c19 23 24 67 29 108z" />
    <glyph glyph-name="currency" unicode="&#xa4;" horiz-adv-x="668" 
d="M173 682l91 -103c56 39 105 45 146 45s90 -6 136 -45l115 103l58 -66l-115 -103c33 -49 32 -100 28 -139c-5 -39 -18 -90 -63 -139l91 -103l-74 -66l-91 103c-56 -39 -105 -45 -146 -45s-90 6 -136 45l-115 -103l-58 66l115 103c-33 49 -32 100 -27 139
c4 39 17 90 62 139l-91 103zM362 232c83 0 148 61 158 142c9 81 -40 142 -123 142s-148 -61 -157 -142c-10 -81 39 -142 122 -142z" />
    <glyph glyph-name="afii10050" unicode="&#x490;" horiz-adv-x="476" 
d="M76 0l82 667h274l18 150h120l-32 -262h-264l-68 -555h-130z" />
    <glyph glyph-name="brokenbar" unicode="&#xa6;" horiz-adv-x="500" 
d="M236 390l45 360h122l-45 -360h-122zM158 -250l44 360h122l-44 -360h-122z" />
    <glyph glyph-name="section" unicode="&#xa7;" 
d="M244 459c-54 24 -80 75 -72 137c12 98 97 161 211 161c74 0 127 -28 151 -82c11 -28 14 -58 10 -98h-120c11 48 -16 80 -58 80c-37 0 -71 -20 -77 -65c-4 -36 5 -49 94 -89c41 -18 89 -40 119 -75c30 -36 35 -80 31 -119c-2 -15 -16 -122 -138 -170c20 -9 85 -44 74 -134
c-11 -88 -85 -175 -211 -175c-110 0 -184 72 -168 190h122c-6 -47 17 -86 62 -86c39 0 72 31 77 72c7 55 -37 74 -90 94c-43 16 -86 28 -119 68c-33 41 -38 90 -33 127c8 67 47 143 135 164zM310 212c39 0 86 30 93 87s-33 87 -72 87s-87 -30 -94 -87s34 -87 73 -87z" />
    <glyph glyph-name="afii10023" unicode="&#x401;" horiz-adv-x="496" 
d="M528 667l-14 -112h-240l-19 -149h230l-13 -112h-230l-23 -182h240l-13 -112h-370l82 667h370zM175 811c5 39 42 72 81 72s68 -33 63 -72s-42 -72 -81 -72s-68 33 -63 72zM399 811c5 39 42 72 81 72s68 -33 63 -72s-42 -72 -81 -72s-68 33 -63 72z" />
    <glyph glyph-name="copyright" unicode="&#xa9;" horiz-adv-x="760" 
d="M463 682c194 0 329 -149 304 -349c-24 -200 -196 -348 -389 -348s-329 148 -305 348c25 200 196 349 390 349zM456 620c-155 0 -293 -128 -313 -287c-19 -159 87 -286 242 -286s293 127 312 286c20 159 -86 287 -241 287zM574 516l-13 -109l-10 11c-17 19 -46 42 -90 42
c-75 0 -134 -56 -143 -128c-9 -74 37 -126 114 -126c23 0 59 6 98 41l12 11l-13 -109c-20 -10 -58 -25 -110 -25c-126 0 -211 89 -197 207c13 100 101 211 245 211c54 0 88 -15 107 -26z" />
    <glyph glyph-name="afii10053" unicode="&#x404;" horiz-adv-x="611" 
d="M588 176l-19 -152c-32 -15 -93 -39 -179 -39c-115 0 -191 40 -238 93c-29 32 -85 113 -68 255c13 100 61 199 133 261c48 41 131 88 259 88c50 0 109 -8 169 -41l-18 -152c-16 20 -67 75 -166 75c-115 0 -205 -78 -235 -173h319l-14 -112h-319c6 -117 101 -176 199 -176
c91 0 150 47 177 73z" />
    <glyph glyph-name="guillemotleft" unicode="&#xab;" horiz-adv-x="514" 
d="M172 219l102 -164l-76 -50l-132 214l185 214l64 -50zM368 219l102 -164l-76 -50l-132 214l185 214l64 -50z" />
    <glyph glyph-name="logicalnot" unicode="&#xac;" horiz-adv-x="500" 
d="M467 0h-122l19 157h-312l14 112h434z" />
    <glyph glyph-name="hyphen" unicode="-" horiz-adv-x="340" 
d="M61 174l14 112h260l-14 -112h-260z" />
    <glyph glyph-name="registered" unicode="&#xae;" horiz-adv-x="760" 
d="M463 682c194 0 329 -149 304 -349c-24 -200 -196 -348 -389 -348s-329 148 -305 348c25 200 196 349 390 349zM456 620c-155 0 -293 -128 -313 -287c-19 -159 87 -286 242 -286s293 127 312 286c20 159 -86 287 -241 287zM325 507h112c84 0 115 -53 109 -104
c-6 -46 -41 -84 -90 -94l86 -137h-89l-78 124l-15 -124h-76zM393 441l-10 -83h13c19 0 63 1 68 42c5 40 -31 41 -56 41h-15z" />
    <glyph glyph-name="afii10056" unicode="&#x407;" horiz-adv-x="282" 
d="M158 667h130l-82 -667h-130zM100 816c4 33 34 60 67 60s57 -27 53 -60s-35 -60 -68 -60s-56 27 -52 60zM262 816c4 33 34 60 67 60s57 -27 53 -60s-35 -60 -68 -60s-56 27 -52 60z" />
    <glyph glyph-name="degree" unicode="&#xb0;" horiz-adv-x="500" 
d="M331 662c86 0 145 -62 134 -150c-10 -88 -85 -150 -171 -150s-145 62 -135 150c11 88 86 150 172 150zM322 590c-46 0 -83 -32 -89 -78c-5 -46 24 -78 70 -78s83 32 88 78c6 46 -23 78 -69 78z" />
    <glyph glyph-name="plusminus" unicode="&#xb1;" horiz-adv-x="500" 
d="M76 355l14 112h156l19 156h122l-19 -156h156l-14 -112h-156l-19 -156h-122l19 156h-156zM39 52l14 112h434l-14 -112h-434z" />
    <glyph glyph-name="afii10055" unicode="&#x406;" horiz-adv-x="282" 
d="M158 667h130l-82 -667h-130z" />
    <glyph glyph-name="afii10103" unicode="&#x456;" horiz-adv-x="238" 
d="M111 433h122l-53 -433h-122zM121 616c5 40 42 73 82 73s69 -33 64 -73s-42 -73 -82 -73s-69 33 -64 73z" />
    <glyph glyph-name="afii10098" unicode="&#x491;" horiz-adv-x="380" 
d="M58 0l53 433h206l15 126h110l-28 -230h-194l-40 -329h-122z" />
    <glyph glyph-name="mu" unicode="&#xb5;" horiz-adv-x="560" 
d="M158 -172h-122l75 605h122l-26 -209c-4 -34 -13 -140 85 -140c95 0 111 105 116 144l25 205h122l-53 -433h-122l7 60c-20 -40 -59 -74 -110 -74c-48 0 -78 31 -91 66z" />
    <glyph glyph-name="paragraph" unicode="&#xb6;" horiz-adv-x="654" 
d="M310 -93h-104l51 413h-13c-105 0 -171 67 -158 170c6 50 32 119 113 155c50 22 94 22 139 22h326l-12 -94h-70l-82 -666h-104l82 666h-86z" />
    <glyph glyph-name="periodcentered" unicode="&#xb7;" horiz-adv-x="200" 
d="M43 286c6 51 52 92 103 92s87 -41 81 -92c-7 -51 -53 -92 -104 -92s-87 41 -80 92z" />
    <glyph glyph-name="afii10071" unicode="&#x451;" horiz-adv-x="522" 
d="M388 139l109 -18c-17 -32 -78 -135 -229 -135c-70 0 -121 20 -159 61c-42 45 -55 101 -47 169c11 86 52 139 87 170c57 50 118 61 170 61c88 0 135 -35 161 -71c39 -55 37 -123 31 -170l-1 -10h-324c-4 -26 0 -54 12 -73c10 -18 35 -41 82 -41c46 0 83 22 108 57z
M199 274h205c-3 59 -47 87 -92 87s-96 -29 -113 -87zM162 586c4 39 41 72 80 72s68 -33 64 -72c-5 -39 -42 -72 -81 -72s-68 33 -63 72zM370 586c4 39 41 72 80 72s68 -33 64 -72c-5 -39 -42 -72 -81 -72s-68 33 -63 72z" />
    <glyph glyph-name="afii61352" unicode="&#x2116;" horiz-adv-x="1080" 
d="M206 0h-130l82 667h130l250 -449l56 449h130l-82 -667h-130l-251 449zM952 667c104 0 159 -67 148 -158s-83 -158 -187 -158s-160 67 -149 158s84 158 188 158zM943 595c-49 0 -89 -36 -95 -86s25 -86 74 -86s88 36 94 86s-24 86 -73 86zM746 197l10 86h296l-10 -86h-296
z" />
    <glyph glyph-name="afii10101" unicode="&#x454;" horiz-adv-x="434" 
d="M415 124l-15 -118c-44 -18 -98 -20 -118 -20c-60 0 -130 17 -171 58s-57 108 -49 169c9 75 47 131 87 166c38 34 99 68 186 68c63 0 97 -19 114 -30l-13 -106c-32 27 -73 40 -108 40s-64 -12 -86 -29c-17 -13 -37 -33 -49 -62h192l-10 -88h-192c-1 -31 14 -54 32 -66
c27 -20 70 -20 89 -20c48 0 82 14 111 38z" />
    <glyph glyph-name="guillemotright" unicode="&#xbb;" horiz-adv-x="514" 
d="M198 219l-101 164l76 50l131 -214l-184 -214l-64 50zM394 219l-101 164l76 50l131 -214l-184 -214l-64 50z" />
    <glyph glyph-name="afii10105" unicode="&#x458;" horiz-adv-x="238" 
d="M111 433h122l-82 -665h-122zM121 616c5 40 42 73 82 73s69 -33 64 -73s-42 -73 -82 -73s-69 33 -64 73z" />
    <glyph glyph-name="afii10054" unicode="&#x405;" horiz-adv-x="534" 
d="M546 604l-79 -89c-33 52 -78 57 -102 57c-70 0 -98 -44 -102 -78c-2 -16 1 -31 16 -45c14 -15 35 -23 75 -38c50 -18 97 -36 127 -67c26 -27 48 -72 40 -140c-16 -130 -121 -219 -259 -219c-123 0 -186 75 -215 126l95 81c24 -65 82 -89 129 -89c59 0 108 36 114 92
c3 24 -2 43 -18 60c-22 23 -61 36 -97 49c-34 12 -74 28 -104 58c-20 19 -46 56 -38 124c12 98 90 196 238 196c42 0 120 -8 180 -78z" />
    <glyph glyph-name="afii10102" unicode="&#x455;" horiz-adv-x="404" 
d="M403 401l-69 -71c-26 27 -54 29 -67 29c-29 0 -49 -14 -52 -35c-1 -11 2 -28 35 -39l27 -9c33 -11 82 -28 103 -62c11 -18 16 -44 13 -72c-5 -39 -23 -78 -62 -110c-38 -32 -82 -46 -135 -46c-90 0 -136 43 -159 72l73 74c20 -28 54 -50 90 -50c34 0 62 17 65 47
c4 27 -17 38 -32 44l-27 10c-30 11 -64 25 -87 52c-17 21 -27 48 -22 83c5 42 29 77 57 98c37 27 81 31 116 31c32 0 83 -4 133 -46z" />
    <glyph glyph-name="afii10104" unicode="&#x457;" horiz-adv-x="238" 
d="M111 433h122l-53 -433h-122zM71 586c3 30 30 54 60 54s51 -24 48 -54c-4 -30 -31 -54 -61 -54s-51 24 -47 54zM203 586c3 30 30 54 60 54s51 -24 48 -54c-4 -30 -31 -54 -61 -54s-51 24 -47 54z" />
    <glyph glyph-name="afii10017" unicode="&#x410;" horiz-adv-x="672" 
d="M530 0l-42 140h-269l-76 -140h-141l372 681h98l198 -681h-140zM273 246h190l-65 240z" />
    <glyph glyph-name="afii10018" unicode="&#x411;" horiz-adv-x="570" 
d="M76 0l82 667h386l-14 -112h-256l-19 -153h90c50 0 114 -8 160 -54c34 -34 53 -85 45 -148c-5 -45 -24 -86 -52 -119c-59 -72 -143 -81 -201 -81h-221zM241 290l-22 -178h62c104 0 130 49 135 87c5 42 -12 91 -111 91h-64z" />
    <glyph glyph-name="afii10019" unicode="&#x412;" horiz-adv-x="570" 
d="M158 667h165c37 0 109 0 157 -42c36 -30 52 -82 45 -138c-10 -86 -71 -121 -91 -131c43 -7 67 -26 82 -42c35 -38 37 -90 33 -125c-5 -39 -23 -94 -74 -135c-55 -44 -117 -54 -175 -54h-224zM275 561l-22 -171h37c20 0 102 2 112 87c8 61 -36 84 -89 84h-38zM241 290
l-22 -184h56c24 0 60 1 91 18c34 19 47 51 50 77c3 21 0 57 -39 76c-27 13 -60 13 -88 13h-48z" />
    <glyph glyph-name="afii10020" unicode="&#x413;" horiz-adv-x="436" 
d="M512 667l-14 -112h-224l-68 -555h-130l82 667h354z" />
    <glyph glyph-name="afii10021" unicode="&#x414;" horiz-adv-x="670" 
d="M222 667h450l-69 -555h70l-32 -262h-120l19 150h-410l-19 -150h-120l32 262c48 -2 91 40 117 90c17 33 35 83 46 175zM334 555l-22 -178c-13 -103 -30 -154 -46 -186c-19 -37 -41 -61 -62 -79h269l55 443h-194z" />
    <glyph glyph-name="afii10022" unicode="&#x415;" horiz-adv-x="496" 
d="M528 667l-14 -112h-240l-19 -149h230l-13 -112h-230l-23 -182h240l-13 -112h-370l82 667h370z" />
    <glyph glyph-name="afii10024" unicode="&#x416;" horiz-adv-x="894" 
d="M467 667h124l-35 -282l257 282h148l-293 -308l220 -359h-150l-178 299l-17 -15l-34 -284h-124l34 284l-13 15l-250 -299h-150l308 359l-217 308h148l187 -282z" />
    <glyph glyph-name="afii10025" unicode="&#x417;" horiz-adv-x="600" 
d="M221 515l-57 89c64 52 130 78 214 78c135 0 211 -69 198 -174c-7 -58 -42 -111 -99 -141c79 -21 112 -91 102 -172c-15 -127 -136 -210 -290 -210c-117 0 -197 48 -236 126l95 81c23 -71 94 -99 157 -99c90 0 134 49 140 99c12 93 -79 102 -133 102h-60l13 112h60
c67 0 115 31 122 85c6 48 -23 77 -86 77c-32 0 -91 -6 -140 -53z" />
    <glyph glyph-name="afii10026" unicode="&#x418;" horiz-adv-x="740" 
d="M158 667h130l-56 -448l425 463h90l-83 -682h-130l55 450l-425 -463h-90z" />
    <glyph glyph-name="afii10027" unicode="&#x419;" horiz-adv-x="740" 
d="M158 667h130l-56 -448l425 463h90l-83 -682h-130l55 450l-425 -463h-90zM293 844l95 36c14 -56 70 -58 83 -58s69 2 97 58l85 -36c-34 -68 -101 -112 -193 -112s-149 44 -167 112z" />
    <glyph glyph-name="afii10028" unicode="&#x41a;" horiz-adv-x="636" 
d="M288 667l-35 -282l280 282h164l-320 -308l253 -359h-172l-201 299l-17 -15l-34 -284h-130l82 667h130z" />
    <glyph glyph-name="afii10029" unicode="&#x41b;" horiz-adv-x="670" 
d="M222 667h454l-82 -667h-130l68 555h-194l-37 -296c-8 -69 -17 -160 -99 -221c-29 -22 -73 -44 -138 -44c-19 0 -37 2 -54 6l13 112c10 -3 23 -6 37 -6c30 0 50 13 62 24c39 34 45 92 53 155z" />
    <glyph glyph-name="afii10030" unicode="&#x41c;" horiz-adv-x="870" 
d="M42 0l207 679h90l127 -436l243 436h90l29 -679h-132l-10 411l-235 -420h-36l-123 420l-118 -411h-132z" />
    <glyph glyph-name="afii10031" unicode="&#x41d;" horiz-adv-x="694" 
d="M288 667l-32 -258h282l32 258h130l-82 -667h-130l36 297h-282l-36 -297h-130l82 667h130z" />
    <glyph glyph-name="afii10032" unicode="&#x41e;" horiz-adv-x="800" 
d="M483 682c210 0 338 -146 313 -349s-188 -348 -398 -348s-339 145 -314 348s189 349 399 349zM412 103c130 0 234 95 250 230c17 135 -63 231 -193 231s-234 -96 -251 -231c-16 -135 64 -230 194 -230z" />
    <glyph glyph-name="afii10033" unicode="&#x41f;" horiz-adv-x="680" 
d="M158 667h528l-82 -667h-130l68 555h-268l-68 -555h-130z" />
    <glyph glyph-name="afii10034" unicode="&#x420;" horiz-adv-x="534" 
d="M158 667h194c75 0 126 -8 169 -51c48 -48 54 -113 48 -161c-3 -26 -16 -98 -73 -149c-41 -37 -99 -59 -176 -59h-84l-30 -247h-130zM274 555l-24 -196h53c25 0 57 0 87 21c27 19 42 49 46 78c4 37 -11 62 -28 76c-24 19 -58 21 -89 21h-45z" />
    <glyph glyph-name="afii10035" unicode="&#x421;" horiz-adv-x="604" 
d="M581 176l-19 -152c-42 -21 -97 -39 -169 -39c-117 0 -183 40 -233 93c-68 74 -88 157 -76 255c15 121 76 208 140 261c74 63 160 88 255 88c47 0 102 -8 159 -41l-18 -152c-53 70 -128 75 -152 75c-134 0 -235 -110 -250 -233c-18 -148 86 -228 198 -228
c62 0 120 27 165 73z" />
    <glyph glyph-name="afii10036" unicode="&#x422;" horiz-adv-x="442" 
d="M504 555h-150l-68 -555h-130l68 555h-150l14 112h430z" />
    <glyph glyph-name="afii10037" unicode="&#x423;" horiz-adv-x="610" 
d="M84 667h152l127 -336l185 336h142l-391 -667h-142l115 186z" />
    <glyph glyph-name="afii10038" unicode="&#x424;" horiz-adv-x="830" 
d="M350 0l11 92h-18c-46 0 -124 5 -182 50c-44 34 -88 98 -74 212s74 178 126 212c70 45 148 50 194 50h18l10 78h130l-10 -78h18c46 0 124 -5 182 -50c44 -34 88 -98 74 -212s-74 -178 -126 -212c-70 -45 -148 -50 -194 -50h-18l-11 -92h-130zM375 204l36 300h-20
c-20 0 -63 -2 -101 -28c-26 -18 -61 -55 -69 -122c-8 -68 17 -103 39 -122c30 -26 63 -28 95 -28h20zM541 504l-36 -300h20c30 0 66 2 102 28c25 18 60 55 68 122c7 58 -11 100 -38 122c-21 17 -54 28 -96 28h-20z" />
    <glyph glyph-name="afii10039" unicode="&#x425;" horiz-adv-x="640" 
d="M8 0l279 352l-160 315h156l91 -207l149 207h156l-244 -315l185 -352h-156l-116 244l-184 -244h-156z" />
    <glyph glyph-name="afii10040" unicode="&#x426;" horiz-adv-x="690" 
d="M76 0l82 667h130l-69 -555h264l69 555h130l-69 -555h80l-32 -262h-120l19 150h-484z" />
    <glyph glyph-name="afii10041" unicode="&#x427;" horiz-adv-x="620" 
d="M414 0l32 266c-29 -3 -87 -7 -120 -7c-109 0 -154 28 -172 43c-54 44 -54 107 -48 160l26 205h130l-23 -182c-4 -30 -7 -67 22 -92c15 -13 42 -22 92 -22c32 0 71 2 107 7l36 289h130l-82 -667h-130z" />
    <glyph glyph-name="afii10042" unicode="&#x428;" horiz-adv-x="970" 
d="M76 0l82 667h130l-69 -555h214l69 555h130l-69 -555h214l69 555h130l-82 -667h-818z" />
    <glyph glyph-name="afii10043" unicode="&#x429;" horiz-adv-x="984" 
d="M76 0l82 667h130l-69 -555h214l69 555h130l-69 -555h214l69 555h130l-69 -555h80l-32 -262h-120l19 150h-778z" />
    <glyph glyph-name="afii10044" unicode="&#x42a;" horiz-adv-x="626" 
d="M146 0l68 555h-140l14 112h270l-33 -261h104c49 0 112 -7 158 -55c32 -34 51 -85 43 -149c-5 -45 -24 -88 -50 -120c-59 -73 -143 -82 -199 -82h-235zM312 294l-23 -182h76c23 0 120 0 131 90c6 42 -10 92 -106 92h-78z" />
    <glyph glyph-name="afii10045" unicode="&#x42b;" horiz-adv-x="800" 
d="M76 0l82 667h130l-33 -261h104c49 0 112 -7 158 -55c32 -34 51 -85 43 -149c-5 -45 -24 -88 -50 -120c-59 -73 -143 -82 -199 -82h-235zM242 294l-23 -182h76c23 0 120 0 131 90c6 42 -10 92 -106 92h-78zM676 667h130l-82 -667h-130z" />
    <glyph glyph-name="afii10046" unicode="&#x42c;" horiz-adv-x="556" 
d="M76 0l82 667h130l-33 -261h104c49 0 112 -7 158 -55c32 -34 51 -85 43 -149c-5 -45 -24 -88 -50 -120c-59 -73 -143 -82 -199 -82h-235zM242 294l-23 -182h76c23 0 120 0 131 90c6 42 -10 92 -106 92h-78z" />
    <glyph glyph-name="afii10047" unicode="&#x42d;" horiz-adv-x="611" 
d="M46 24l19 152c46 -53 108 -73 167 -73c97 0 201 59 235 176h-299l14 112h297c-5 115 -92 173 -185 173c-47 0 -122 -13 -190 -75l18 152c68 33 129 41 179 41c128 0 201 -47 239 -88c56 -62 80 -161 67 -261c-17 -142 -93 -223 -130 -255c-59 -53 -145 -93 -260 -93
c-86 0 -141 24 -171 39z" />
    <glyph glyph-name="afii10048" unicode="&#x42e;" horiz-adv-x="1026" 
d="M256 409h92c26 88 77 144 105 171c69 66 157 102 268 102c205 0 326 -147 301 -349c-24 -202 -181 -348 -386 -348c-109 0 -183 35 -232 89c-30 33 -80 105 -74 223h-88l-36 -297h-130l82 667h130zM650 103c125 0 222 94 238 230c20 160 -82 231 -181 231
s-219 -71 -239 -231c-16 -136 57 -230 182 -230z" />
    <glyph glyph-name="afii10049" unicode="&#x42f;" 
d="M574 667l-82 -667h-130l31 258h-24l-201 -258h-156l231 270c-25 4 -50 15 -70 30c-36 29 -64 84 -55 161c9 73 46 124 85 155c58 46 122 51 178 51h193zM431 561h-40c-24 0 -127 -1 -139 -100c-12 -101 90 -101 116 -101h38z" />
    <glyph glyph-name="afii10065" unicode="&#x430;" horiz-adv-x="570" 
d="M436 377l7 56h122l-53 -433h-122l6 56c-51 -63 -110 -70 -141 -70c-133 0 -208 104 -193 231c16 128 115 230 243 230c33 0 98 -6 131 -70zM323 339c-70 0 -126 -53 -135 -122c-8 -69 35 -123 105 -123s127 54 135 123c9 69 -35 122 -105 122z" />
    <glyph glyph-name="afii10066" unicode="&#x431;" horiz-adv-x="576" 
d="M492 720h112c-31 -107 -110 -141 -161 -156c-88 -26 -139 -23 -190 -78c-23 -25 -41 -60 -49 -98h2c38 42 105 59 159 59c65 0 118 -20 155 -61c21 -23 58 -76 46 -168c-10 -84 -55 -139 -94 -171c-53 -44 -110 -61 -179 -61c-47 0 -116 6 -166 57
c-64 65 -59 157 -51 219c20 166 64 248 102 292c65 77 148 94 208 106c65 13 92 29 106 60zM303 94c72 0 129 54 137 122c9 69 -34 123 -107 123s-128 -54 -137 -123c-8 -68 35 -122 107 -122z" />
    <glyph glyph-name="afii10067" unicode="&#x432;" horiz-adv-x="456" 
d="M111 433h191c29 0 69 0 100 -26c22 -19 36 -49 31 -85c-4 -37 -30 -72 -71 -89c20 -4 39 -14 54 -28c17 -17 27 -43 23 -81c-7 -51 -35 -80 -58 -96c-38 -26 -81 -28 -100 -28h-223zM212 261h56c2 0 19 0 33 8c11 7 18 17 19 30c2 16 -4 26 -10 31c-9 7 -23 7 -35 7h-54z
M191 96h57c13 0 32 1 47 11c8 6 18 18 20 35c2 16 -5 26 -12 31c-12 9 -30 10 -41 10h-60z" />
    <glyph glyph-name="afii10068" unicode="&#x433;" horiz-adv-x="340" 
d="M58 0l53 433h276l-13 -104h-154l-40 -329h-122z" />
    <glyph glyph-name="afii10069" unicode="&#x434;" horiz-adv-x="530" 
d="M151 433h360l-41 -329h64l-28 -230h-110l16 126h-298l-16 -126h-110l28 230c39 2 68 29 84 55c15 26 24 60 31 111zM348 104l28 225h-128l-12 -96c-7 -56 -24 -98 -64 -129h176z" />
    <glyph glyph-name="afii10070" unicode="&#x435;" horiz-adv-x="522" 
d="M388 139l109 -18c-17 -32 -78 -135 -229 -135c-70 0 -121 20 -159 61c-42 45 -55 101 -47 169c11 86 52 139 87 170c57 50 118 61 170 61c88 0 135 -35 161 -71c39 -55 37 -123 31 -170l-1 -10h-324c-4 -26 0 -54 12 -73c10 -18 35 -41 82 -41c46 0 83 22 108 57z
M199 274h205c-3 59 -47 87 -92 87s-96 -29 -113 -87z" />
    <glyph glyph-name="afii10072" unicode="&#x436;" horiz-adv-x="668" 
d="M332 433h110l-21 -168l151 168h142l-189 -197l145 -236h-148l-97 170l-18 -18l-18 -152h-110l18 152l-14 18l-137 -170h-148l203 236l-141 197h142l109 -168z" />
    <glyph glyph-name="afii10073" unicode="&#x437;" horiz-adv-x="440" 
d="M140 317l-46 76c55 40 110 54 170 54c37 0 83 -7 112 -29c20 -15 44 -44 38 -92c-7 -55 -50 -82 -72 -93c21 -5 40 -16 54 -29c17 -17 27 -43 23 -80c-7 -51 -37 -83 -63 -100c-40 -28 -100 -38 -146 -38c-52 0 -127 12 -177 72l69 74c31 -33 77 -46 110 -46
c62 0 80 29 82 49c2 13 -3 27 -18 36c-14 7 -31 8 -51 8h-51l10 88h49c16 0 37 2 50 10c14 9 17 21 18 30c3 23 -10 44 -60 44c-39 0 -72 -12 -101 -34z" />
    <glyph glyph-name="afii10074" unicode="&#x438;" horiz-adv-x="560" 
d="M111 433h122l-33 -267l233 267h122l-53 -433h-122l32 267l-232 -267h-122z" />
    <glyph glyph-name="afii10075" unicode="&#x439;" horiz-adv-x="560" 
d="M111 433h122l-33 -267l233 267h122l-53 -433h-122l32 267l-232 -267h-122zM443 650l76 -38c-39 -83 -124 -103 -177 -103s-132 20 -151 103l84 38c4 -36 35 -63 77 -63c36 0 76 20 91 63z" />
    <glyph glyph-name="afii10076" unicode="&#x43a;" horiz-adv-x="500" 
d="M111 433h122l-21 -168l183 168h152l-220 -193l177 -240h-156l-128 179l-21 -18l-19 -161h-122z" />
    <glyph glyph-name="afii10077" unicode="&#x43b;" horiz-adv-x="500" 
d="M495 433l-53 -433h-122l40 329h-118l-20 -159c-4 -35 -16 -89 -56 -128c-11 -10 -52 -46 -123 -46c-12 0 -24 1 -35 4l12 104c6 -1 13 -2 19 -2c27 0 43 11 53 21c15 16 19 38 21 55l32 255h350z" />
    <glyph glyph-name="afii10078" unicode="&#x43c;" horiz-adv-x="600" 
d="M12 0l133 445h90l87 -261l151 261h90l25 -445h-122l-8 235l-142 -244h-36l-82 244l-64 -235h-122z" />
    <glyph glyph-name="afii10079" unicode="&#x43d;" horiz-adv-x="530" 
d="M58 0l53 433h122l-19 -153h170l19 153h122l-53 -433h-122l21 176h-170l-21 -176h-122z" />
    <glyph glyph-name="afii10080" unicode="&#x43e;" 
d="M338 447c82 0 135 -27 168 -61c38 -39 61 -99 52 -170c-9 -70 -46 -130 -94 -169c-41 -34 -100 -61 -182 -61s-135 27 -168 61c-38 39 -61 99 -52 169c9 71 46 131 94 170c41 34 100 61 182 61zM295 94c71 0 129 56 137 122c8 68 -37 123 -107 123s-129 -55 -137 -123
c-8 -66 36 -122 107 -122z" />
    <glyph glyph-name="afii10081" unicode="&#x43f;" horiz-adv-x="526" 
d="M111 433h410l-53 -433h-122l40 329h-166l-40 -329h-122z" />
    <glyph glyph-name="afii10082" unicode="&#x440;" horiz-adv-x="570" 
d="M186 56l-35 -288h-122l82 665h122l-7 -56c50 60 112 70 149 70c128 0 201 -99 185 -230c-16 -132 -116 -231 -244 -231c-28 0 -91 5 -130 70zM329 339c-70 0 -126 -53 -135 -122c-8 -69 35 -123 105 -123s127 54 135 123c9 69 -35 122 -105 122z" />
    <glyph glyph-name="afii10083" unicode="&#x441;" horiz-adv-x="418" 
d="M435 421l-14 -120c-24 24 -54 38 -96 38c-81 0 -129 -59 -137 -122c-9 -71 38 -123 111 -123c27 0 64 8 101 38l-15 -119c-25 -12 -65 -27 -115 -27c-68 0 -125 26 -159 63c-30 31 -59 85 -49 166c9 76 48 137 97 176c58 47 120 56 162 56c45 0 81 -9 114 -26z" />
    <glyph glyph-name="afii10084" unicode="&#x442;" horiz-adv-x="374" 
d="M408 329h-120l-40 -329h-122l40 329h-120l13 104h362z" />
    <glyph glyph-name="afii10085" unicode="&#x443;" horiz-adv-x="538" 
d="M20 -232l195 297l-160 368h142l104 -246l150 246h138l-431 -665h-138z" />
    <glyph glyph-name="afii10086" unicode="&#x444;" horiz-adv-x="690" 
d="M255 -232l28 226h-10c-51 0 -109 13 -147 43c-36 27 -76 83 -64 180s66 152 108 180c56 36 116 42 157 42h10l29 228h122l-29 -228h10c41 0 101 -6 147 -42c36 -28 76 -83 64 -180s-66 -153 -108 -180c-46 -30 -106 -43 -157 -43h-10l-28 -226h-122zM296 102l28 229
c-26 1 -55 -5 -79 -20c-38 -24 -53 -61 -57 -94c-3 -28 -3 -68 33 -94c18 -14 47 -21 75 -21zM446 331l-28 -229c28 0 59 7 81 21c42 26 52 66 55 94c4 33 -1 70 -33 94c-20 15 -49 21 -75 20z" />
    <glyph glyph-name="afii10087" unicode="&#x445;" horiz-adv-x="566" 
d="M2 0l235 236l-142 197h154l74 -112l104 112h154l-193 -197l176 -236h-156l-106 151l-144 -151h-156z" />
    <glyph glyph-name="afii10088" unicode="&#x446;" horiz-adv-x="542" 
d="M58 0l53 433h122l-41 -329h162l41 329h122l-41 -329h70l-28 -230h-110l16 126h-366z" />
    <glyph glyph-name="afii10089" unicode="&#x447;" horiz-adv-x="484" 
d="M304 0l18 148c-32 -6 -68 -10 -104 -10c-33 0 -82 4 -116 40c-31 33 -30 70 -26 102l19 153h122l-16 -128c-2 -15 -4 -33 9 -47c15 -16 44 -16 60 -16c22 0 42 2 64 6l23 185h122l-53 -433h-122z" />
    <glyph glyph-name="afii10090" unicode="&#x448;" horiz-adv-x="762" 
d="M58 0l53 433h122l-41 -329h140l41 329h122l-41 -329h140l41 329h122l-53 -433h-646z" />
    <glyph glyph-name="afii10091" unicode="&#x449;" horiz-adv-x="782" 
d="M58 0l53 433h122l-41 -329h140l41 329h122l-41 -329h140l41 329h122l-41 -329h70l-28 -230h-110l16 126h-606z" />
    <glyph glyph-name="afii10092" unicode="&#x44a;" horiz-adv-x="504" 
d="M59 433h228l-19 -154h95c38 0 84 -11 110 -44c17 -20 27 -50 22 -93c-7 -57 -36 -92 -60 -110c-35 -28 -71 -32 -100 -32h-223l40 329h-106zM245 96h57c13 0 32 1 47 11c8 6 18 18 20 35c2 16 -5 26 -12 31c-12 9 -30 10 -41 10h-60z" />
    <glyph glyph-name="afii10093" unicode="&#x44b;" horiz-adv-x="650" 
d="M111 433h122l-19 -154h95c38 0 84 -11 110 -44c17 -20 27 -50 22 -93c-7 -57 -36 -92 -60 -110c-35 -28 -71 -32 -100 -32h-223zM191 96h57c13 0 32 1 47 11c8 6 18 18 20 35c2 16 -5 26 -12 31c-12 9 -30 10 -41 10h-60zM523 433h122l-53 -433h-122z" />
    <glyph glyph-name="afii10094" unicode="&#x44c;" horiz-adv-x="450" 
d="M111 433h122l-19 -154h95c38 0 84 -11 110 -44c17 -20 27 -50 22 -93c-7 -57 -36 -92 -60 -110c-35 -28 -71 -32 -100 -32h-223zM191 96h57c13 0 32 1 47 11c8 6 18 18 20 35c2 16 -5 26 -12 31c-12 9 -30 10 -41 10h-60z" />
    <glyph glyph-name="afii10095" unicode="&#x44d;" horiz-adv-x="434" 
d="M35 9l14 118c42 -38 89 -42 121 -42c25 0 57 4 83 24c20 16 33 41 37 66h-179l11 88h179c-1 32 -16 52 -26 61c-19 20 -44 27 -73 27c-24 0 -77 -5 -128 -37l13 106c56 22 101 27 135 27c63 0 120 -14 161 -65c23 -27 52 -80 41 -166c-9 -75 -44 -134 -85 -169
c-41 -37 -104 -62 -173 -62c-34 0 -92 6 -131 24z" />
    <glyph glyph-name="afii10096" unicode="&#x44e;" horiz-adv-x="750" 
d="M213 270h59c15 54 47 91 76 116c50 43 108 61 176 61c80 0 132 -27 165 -61c37 -38 60 -100 51 -170c-8 -69 -46 -130 -93 -169c-30 -25 -88 -61 -179 -61c-78 0 -130 27 -162 61c-20 22 -45 61 -47 119h-59l-20 -166h-122l53 433h122zM481 94c69 0 125 55 133 122
c9 69 -34 123 -103 123s-124 -54 -133 -123c-8 -67 34 -122 103 -122z" />
    <glyph glyph-name="afii10097" unicode="&#x44f;" horiz-adv-x="460" 
d="M20 0l147 162c-6 1 -42 7 -65 34c-15 17 -29 47 -23 92c7 54 38 89 65 109c48 34 98 36 139 36h172l-53 -433h-122l18 152h-14l-124 -152h-140zM309 240l12 97h-53c-14 0 -28 0 -43 -12c-13 -11 -18 -24 -20 -38s0 -26 11 -36c12 -10 27 -11 40 -11h53z" />
    <glyph glyph-name="afii10052" unicode="&#x403;" horiz-adv-x="436" 
d="M512 667l-14 -112h-224l-68 -555h-130l82 667h354zM345 728l-50 50l158 142l81 -70z" />
    <glyph glyph-name="afii10100" unicode="&#x453;" horiz-adv-x="340" 
d="M58 0l53 433h276l-13 -104h-154l-40 -329h-122zM344 700l81 -56l-167 -134l-51 40z" />
    <glyph glyph-name="afii10061" unicode="&#x40c;" horiz-adv-x="636" 
d="M288 667l-35 -282l280 282h164l-320 -308l253 -359h-172l-201 299l-17 -15l-34 -284h-130l82 667h130zM383 728l-50 50l158 142l81 -70z" />
    <glyph glyph-name="afii10109" unicode="&#x45c;" horiz-adv-x="500" 
d="M111 433h122l-21 -168l183 168h152l-220 -193l177 -240h-156l-128 179l-21 -18l-19 -161h-122zM404 700l81 -56l-167 -134l-51 40z" />
    <glyph glyph-name="afii10062" unicode="&#x40e;" horiz-adv-x="610" 
d="M84 667h152l127 -336l185 336h142l-391 -667h-142l115 186zM233 844l95 36c14 -56 70 -58 83 -58s69 2 97 58l85 -36c-34 -68 -101 -112 -193 -112s-149 44 -167 112z" />
    <glyph glyph-name="afii10110" unicode="&#x45e;" horiz-adv-x="538" 
d="M20 -232l195 297l-160 368h142l104 -246l150 246h138l-431 -665h-138zM437 650l76 -38c-39 -83 -124 -103 -177 -103s-132 20 -151 103l84 38c4 -36 35 -63 77 -63c36 0 76 20 91 63z" />
    </font>
</defs>
</svg>
